Coordinates
version=1
nRows=10
nColumns=40
inDegrees=yes

Units are S.I. units (second, meters, Newtons, ...)
If the header above contains a line with 'inDegrees', this indicates whether rotational values are in degrees (yes) or radians (no).

endheader
time	pelvis_tilt	pelvis_list	pelvis_rotation	pelvis_tx	pelvis_ty	pelvis_tz	hip_flexion_r	hip_adduction_r	hip_rotation_r	knee_angle_r	knee_angle_r_beta	ankle_angle_r	subtalar_angle_r	mtp_angle_r	hip_flexion_l	hip_adduction_l	hip_rotation_l	knee_angle_l	knee_angle_l_beta	ankle_angle_l	subtalar_angle_l	mtp_angle_l	lumbar_extension	lumbar_bending	lumbar_rotation	arm_flex_r	arm_add_r	arm_rot_r	elbow_flex_r	pro_sup_r	wrist_flex_r	wrist_dev_r	arm_flex_l	arm_add_l	arm_rot_l	elbow_flex_l	pro_sup_l	wrist_flex_l	wrist_dev_l
      4.67500000	    -42.07694039	     -2.49594644	      5.91477987	     -0.38364800	      0.66551738	     -0.73181986	     95.51633069	     -4.27945029	    -10.82497345	     96.76710606	      1.68890461	     28.75569211	      0.00000000	      0.00000000	     38.21253637	    -12.09768831	      4.81110416	     91.81509950	      1.60247579	     -8.79822297	      0.00000000	      0.00000000	      4.93382728	      5.46929276	     -7.35462448	     89.97428336	     -1.14244465	      4.91460368	     60.01474826	     66.77466588	      0.00000000	      0.00000000	     89.96174486	     -6.31002177	      2.04731675	     56.63523042	     71.65933157	      0.00000000	      0.00000000
      4.68000000	    -42.03487831	     -2.49071976	      5.92215391	     -0.38364137	      0.66629643	     -0.73184433	     95.45343904	     -4.27117973	    -10.82115153	     96.73885111	      1.68841147	     28.73594876	      0.00000000	      0.00000000	     38.31710101	    -12.06922438	      4.77430534	     91.81308652	      1.60244066	     -8.79080035	      0.00000000	      0.00000000	      4.94265691	      5.47442266	     -7.33884639	     89.97423530	     -1.14119165	      4.91535050	     60.02599097	     66.77654315	      0.00000000	      0.00000000	     89.96174516	     -6.29925182	      2.04553661	     56.65978388	     71.66513200	      0.00000000	      0.00000000
      4.68500000	    -42.01411777	     -2.43618325	      5.95069710	     -0.38368746	      0.66725356	     -0.73196153	     95.27938771	     -4.30821867	    -10.79731750	     96.47590056	      1.68382211	     28.66365786	      0.00000000	      0.00000000	     38.50885372	    -12.01145770	      4.64692394	     91.92971536	      1.60447621	     -8.76980561	      0.00000000	      0.00000000	      4.95054346	      5.41786226	     -7.31619579	     89.97424396	     -1.18560434	      4.93451107	     59.98032561	     66.78201114	      0.00000000	      0.00000000	     89.96170753	     -6.27032463	      2.05399119	     56.66499697	     71.69226010	      0.00000000	      0.00000000
      4.69000000	    -41.96924128	     -2.42970297	      5.97585364	     -0.38389347	      0.66834053	     -0.73199379	     95.16797745	     -4.33156289	    -10.79117767	     96.28640134	      1.68051473	     28.56635137	      0.00000000	      0.00000000	     38.68661257	    -12.02414770	      4.50905496	     91.88530517	      1.60370111	     -8.66443436	      0.00000000	      0.00000000	      4.92367002	      5.39109070	     -7.35745257	     89.97422912	     -1.20584067	      4.96901503	     60.02087502	     66.79477828	      0.00000000	      0.00000000	     89.96185117	     -6.23954716	      2.06872408	     56.66604311	     71.72011041	      0.00000000	      0.00000000
      4.69500000	    -41.92905305	     -2.34870633	      5.92455039	     -0.38392669	      0.66921708	     -0.73200795	     94.95928574	     -4.29574760	    -10.80845028	     95.90188484	      1.67380365	     28.65925613	      0.00000000	      0.00000000	     38.81447764	    -11.81206698	      4.55546335	     92.08424542	      1.60717327	     -8.74240900	      0.00000000	      0.00000000	      4.92236416	      5.34359654	     -7.26373950	     89.97424932	     -1.20564582	      4.99740914	     59.93935552	     66.80027835	      0.00000000	      0.00000000	     89.96178137	     -6.27198526	      2.05747272	     56.68360244	     71.74709699	      0.00000000	      0.00000000
      4.70000000	    -41.90343091	     -2.31388249	      5.98397680	     -0.38405762	      0.67026588	     -0.73199922	     94.81638001	     -4.30067229	    -10.75450708	     95.66122075	      1.66960327	     28.72393638	      0.00000000	      0.00000000	     38.99392550	    -11.79994231	      4.45809079	     92.13660455	      1.60808711	     -8.75735634	      0.00000000	      0.00000000	      4.93382014	      5.31219864	     -7.30105177	     89.97419488	     -1.18617055	      5.01790953	     59.89587130	     66.80764351	      0.00000000	      0.00000000	     89.96178074	     -6.28756583	      2.06986131	     56.66696660	     71.77961580	      0.00000000	      0.00000000
      4.70500000	    -41.89357364	     -2.27989920	      5.96434773	     -0.38409592	      0.67123825	     -0.73202062	     94.69359278	     -4.25708577	    -10.74215830	     95.42770998	      1.66552774	     28.76381322	      0.00000000	      0.00000000	     39.17002367	    -11.67532242	      4.44549526	     92.19656569	      1.60913363	     -8.79126869	      0.00000000	      0.00000000	      4.96002638	      5.28187330	     -7.29667830	     89.97418391	     -1.15878791	      5.04523359	     59.86298322	     66.81589003	      0.00000000	      0.00000000	     89.96180511	     -6.31870593	      2.08257285	     56.66892454	     71.81324283	      0.00000000	      0.00000000
      4.71000000	    -41.87995187	     -2.22632703	      5.99869216	     -0.38420832	      0.67229651	     -0.73211898	     94.57957124	     -4.29633862	    -10.72039914	     95.24075285	      1.66226472	     28.78238834	      0.00000000	      0.00000000	     39.34903755	    -11.57032899	      4.39482257	     92.27110440	      1.61043458	     -8.81867693	      0.00000000	      0.00000000	      4.97366390	      5.21475967	     -7.31455728	     89.97415903	     -1.16125176	      5.02417913	     59.80890789	     66.81971902	      0.00000000	      0.00000000	     89.96184614	     -6.31914833	      2.10497715	     56.70369314	     71.85623886	      0.00000000	      0.00000000
      4.71500000	    -41.83093575	     -2.20958462	      6.01410929	     -0.38431540	      0.67335816	     -0.73212564	     94.47860935	     -4.29712006	    -10.72180206	     95.16455981	      1.66093490	     28.77126428	      0.00000000	      0.00000000	     39.48645854	    -11.52982525	      4.34874196	     92.28666649	      1.61070619	     -8.81535802	      0.00000000	      0.00000000	      4.94767569	      5.19511530	     -7.31064729	     89.97415399	     -1.14556354	      5.01943902	     59.81113274	     66.82082022	      0.00000000	      0.00000000	     89.96187441	     -6.31788377	      2.10649145	     56.72068695	     71.86599953	      0.00000000	      0.00000000
      4.72000000	    -41.77058440	     -2.17252994	      6.06135713	     -0.38434104	      0.67449397	     -0.73222559	     94.24854850	     -4.31466211	    -10.68833385	     94.87062035	      1.65580469	     28.73392130	      0.00000000	      0.00000000	     39.65045305	    -11.47093949	      4.28454014	     92.41734176	      1.61298690	     -8.83145147	      0.00000000	      0.00000000	      4.93007099	      5.15267965	     -7.35930606	     89.97405955	     -1.13630992	      5.05547934	     59.79364679	     66.83014055	      0.00000000	      0.00000000	     89.96190048	     -6.32634098	      2.12102181	     56.71060120	     71.89556192	      0.00000000	      0.00000000
